<svg xmlns="http://www.w3.org/2000/svg" viewBox="0 0 64 64" width="64" height="64">
  <rect width="64" height="64" rx="16" fill="#0d2748"/>
  <g fill="none" stroke="#93c6ef" stroke-width="3.4" stroke-linecap="round" stroke-linejoin="round">
    <path d="M31 16C26 8 16 7 11 14c-5 8-2 22 3 31 2 3 5 4 7 1 3-6 2-15 4-20 2-5 8-6 6-10Z"/>
    <path d="M33 16c5-8 15-9 20-2 5 8 2 22-3 31-2 3-5 4-7 1-3-6-2-15-4-20-2-5-8-6-6-10Z"/>
    <path d="M32 26c-3 4-4 11-1 18 3-7 3-14 1-18Z" stroke-width="2.6"/>
  </g>
</svg>
